:SAMPLES-PER-SECOND 30
:FULLY-SPECIFIED
:DEGREES
657
root  -19.8127 32.9995 27.9506 128.864 2.17868 96.7162
Spine  -0.222635 -10.3116 -16.8802
Spine1  0.0801798 10.2034 3.92118
Neck  3.97569e-016 0 -2.38542e-015
Head  -33.9978 4.63587 32.6781
R_Clavicle  0.433935 -24.1528 1.5376
R_UpperArm  39.707 -2.27759 32.8143
R_Forearm  4.66261 -43.1861 27.823
R_Hand  -2.2454 9.67619 -27.7694
L_Clavicle  -0.650383 24.6118 0.745414
L_UpperArm  3.15369 -0.744247 15.5678
L_Forearm  -5.68673 30.4605 36.0353
L_Hand  -0.0514646 1.01956 -0.832514
L_Thigh  -6.6189 -9.40477 -14.29
L_Calf  -1.15139 -6.09961 28.0428
L_Foot  7.03614 15.3826 9.617
L_Toe0  0.505156 0.0357361 -6.13609
R_Thigh  2.51839 -9.57006 -2.01521
R_Calf  -0.814438 5.52083 17.3
R_Foot  1.76647 1.68764 -13.2685
R_Toe0  2.50934 -0.478033 -14.1046
658
root  -19.3847 33.1173 28.41 128.246 2.21893 96.1921
Spine  -0.739478 -10.2661 -17.4665
Spine1  -0.226179 10.9435 3.80237
Neck  3.97569e-016 0 -2.38542e-015
Head  -34.8223 4.10365 31.6095
R_Clavicle  0.431555 -23.8762 1.59166
R_UpperArm  40.2955 -2.65039 32.4735
R_Forearm  1.9239 -45.0608 30.3665
R_Hand  -2.18305 9.73216 -27.3168
L_Clavicle  -0.64388 24.4914 0.790854
L_UpperArm  3.26247 -1.49607 14.8635
L_Forearm  -5.68594 30.4409 36.0273
L_Hand  -0.0617924 1.21841 -0.970748
L_Thigh  -5.78948 -8.99771 -15.9616
L_Calf  -2.31568 -6.76271 30.0021
L_Foot  7.07626 15.4371 9.68128
L_Toe0  0.505156 0.035725 -6.13609
R_Thigh  1.98784 -8.87714 -1.6935
R_Calf  -0.129137 8.38944 27.0567
R_Foot  1.54607 -0.0865312 -13.9837
R_Toe0  -2.02624 -0.25205 -17.529
659
root  -18.9948 33.2492 28.8891 127.387 2.2605 95.462
Spine  -1.24938 -10.0561 -18.0816
Spine1  -0.563273 11.9647 3.67143
Neck  3.97569e-016 0 -2.38542e-015
Head  -34.4358 3.21281 30.469
R_Clavicle  0.429756 -23.5811 1.60498
R_UpperArm  40.7887 -2.69312 32.5031
R_Forearm  -1.0958 -46.33 32.3637
R_Hand  -2.07705 9.67847 -26.6018
L_Clavicle  -0.651579 24.4364 0.677384
L_UpperArm  1.88855 -1.821 14.6553
L_Forearm  -5.20891 31.2213 36.2354
L_Hand  -0.0857424 1.25174 -1.36086
L_Thigh  -5.3629 -8.45761 -17.4405
L_Calf  -3.33395 -7.17408 32.0034
L_Foot  6.99442 15.2781 9.59401
L_Toe0  0.505156 0.0356854 -6.13609
R_Thigh  1.78417 -7.63102 -1.45281
R_Calf  -1.44105 10.9301 36.7664
R_Foot  1.5873 -0.821799 -15.3981
R_Toe0  -1.79985 -0.273057 -17.3299
660
root  -18.626 33.3744 29.3717 126.091 2.40698 94.6931
Spine  -1.58648 -9.64336 -18.684
Spine1  -0.80492 12.9107 3.55039
Neck  3.97569e-016 0 -2.38542e-015
Head  -33.2882 2.11442 29.4518
R_Clavicle  0.430051 -23.6192 1.59646
R_UpperArm  41.1527 -2.46333 33.1619
R_Forearm  -2.13712 -46.7952 33.3349
R_Hand  -2.01928 9.71268 -26.1902
L_Clavicle  -0.664199 24.2581 0.457079
L_UpperArm  -0.668414 -1.81108 14.7199
L_Forearm  -3.6699 32.898 36.6848
L_Hand  -0.0887037 1.01592 -1.47738
L_Thigh  -5.40787 -7.70852 -18.9999
L_Calf  -4.18688 -7.64137 34.0457
L_Foot  6.84367 15.0453 9.37655
L_Toe0  0.505156 0.0356143 -6.13609
R_Thigh  2.17197 -5.90285 -1.16362
R_Calf  -4.99296 12.7748 45.2028
R_Foot  2.19216 1.68267 -17.9501
R_Toe0  -1.78853 -0.273441 -17.3235
661
root  -18.2626 33.4099 29.9047 124.456 2.5928 94.1336
Spine  -1.80466 -9.41904 -19.16
Spine1  -1.02303 13.7978 3.31473
Neck  3.97569e-016 0 -2.38542e-015
Head  -31.6118 1.05561 28.8808
R_Clavicle  0.430438 -23.7875 1.63001
R_UpperArm  41.4403 -2.12461 34.0912
R_Forearm  -0.926901 -46.6754 33.4323
R_Hand  -2.01376 9.93107 -26.0857
L_Clavicle  -0.669478 24.1043 0.333159
L_UpperArm  -4.01429 -1.6589 14.9831
L_Forearm  -0.575468 35.3742 37.4411
L_Hand  -0.0699877 0.762286 -1.21108
L_Thigh  -5.78197 -7.03521 -20.5583
L_Calf  -5.07423 -8.06588 35.427
L_Foot  6.869 14.7964 9.68113
L_Toe0  0.505156 0.0355088 -6.13609
R_Thigh  2.55887 -4.012 -0.729628
R_Calf  -8.37075 14.0259 50.4665
R_Foot  3.00897 7.36729 -19.402
R_Toe0  -1.78853 -0.274433 -17.3235
662
root  -17.9062 33.3379 30.5738 122.972 2.70685 93.9619
Spine  -2.13708 -9.85222 -19.5327
Spine1  -1.38542 14.9214 3.13875
Neck  3.97569e-016 0 -2.38542e-015
Head  -29.6525 0.288878 28.7719
R_Clavicle  0.429369 -23.7556 1.69549
R_UpperArm  41.8629 -1.80194 34.7595
R_Forearm  0.940405 -46.1751 33.1118
R_Hand  -2.01159 10.1587 -26.0035
L_Clavicle  -0.668252 24.1755 0.374797
L_UpperArm  -7.66122 -1.51834 15.4561
L_Forearm  3.70023 38.2111 38.5952
L_Hand  -0.0503688 0.73361 -0.865397
L_Thigh  -6.49095 -6.67711 -21.9836
L_Calf  -5.56662 -8.07492 35.6237
L_Foot  7.02654 14.2103 10.6988
L_Toe0  0.505156 0.0353659 -6.13609
R_Thigh  1.98698 -2.14506 -0.259261
R_Calf  -9.46206 14.5413 51.5284
R_Foot  3.44796 11.318 -18.4675
R_Toe0  -1.78853 -0.275713 -17.3234
663
root  -17.5393 33.21 31.3556 122.196 2.6781 94.2443
Spine  -2.73837 -11.1454 -20.0574
Spine1  -1.9715 16.4051 3.45843
Neck  3.97569e-016 0 -2.38542e-015
Head  -27.9938 -0.0606 28.8455
R_Clavicle  0.427447 -23.5637 1.77924
R_UpperArm  42.3447 -1.4932 35.0438
R_Forearm  2.41598 -45.4545 32.5719
R_Hand  -2.00153 10.2376 -25.9132
L_Clavicle  -0.670123 24.3594 0.414229
L_UpperArm  -11.2945 -1.3637 16.0942
L_Forearm  8.50158 40.993 40.2596
L_Hand  -0.0322866 0.808466 -0.529791
L_Thigh  -7.6351 -6.63679 -23.4004
L_Calf  -5.01382 -7.57524 34.9584
L_Foot  7.07015 13.2692 11.762
L_Toe0  0.505156 0.0351826 -6.13609
R_Thigh  1.22414 -0.41827 -0.135013
R_Calf  -9.94438 13.7793 49.8085
R_Foot  3.11583 8.69007 -17.8875
R_Toe0  -1.78853 -0.277162 -17.3234
664
root  -17.138 33.0877 32.1579 122.286 2.5311 94.6634
Spine  -3.54818 -12.8013 -20.9357
Spine1  -2.7267 18.0527 4.25341
Neck  3.97569e-016 0 -2.38542e-015
Head  -27.4183 -0.0521278 28.9555
R_Clavicle  0.424813 -23.4996 1.97767
R_UpperArm  42.4721 -1.15557 35.3505
R_Forearm  3.86415 -44.6419 31.6568
R_Hand  -2.00838 10.2105 -25.9652
L_Clavicle  -0.683153 24.6836 0.360279
L_UpperArm  -14.833 -1.24808 16.7101
L_Forearm  14.0346 43.7182 42.7293
L_Hand  -0.00496714 0.69945 -0.0510526
L_Thigh  -8.86428 -6.59411 -24.8689
L_Calf  -3.54462 -6.83482 34.227
L_Foot  6.88339 12.2456 12.2633
L_Toe0  0.505156 0.0349559 -6.13609
R_Thigh  -0.478197 1.15288 -0.39152
R_Calf  -9.88219 12.361 47.3548
R_Foot  2.36811 0.873299 -20.4287
R_Toe0  -1.8028 -0.278913 -17.3314
665
root  -16.7255 33.003 32.9778 122.786 2.4328 94.6258
Spine  -4.35004 -13.6559 -21.9583
Spine1  -3.51499 19.4107 4.84086
Neck  3.97569e-016 0 -2.38542e-015
Head  -28.3527 0.111803 29.1432
R_Clavicle  0.420232 -23.6851 2.32894
R_UpperArm  42.1007 -0.817535 36.1797
R_Forearm  5.65385 -43.7707 30.3198
R_Hand  -2.03081 10.2128 -26.1058
L_Clavicle  -0.701085 25.4801 0.405499
L_UpperArm  -17.8754 -1.2704 16.9668
L_Forearm  20.5147 46.2676 46.2941
L_Hand  0.0236719 0.257897 0.475377
L_Thigh  -9.85489 -6.08256 -26.0472
L_Calf  -1.71281 -5.95231 33.5359
L_Foot  6.48919 11.0335 12.3545
L_Toe0  0.500217 0.0347215 -6.14047
R_Thigh  -4.05236 2.76822 -0.538215
R_Calf  -8.28219 11.366 44.4878
R_Foot  2.13908 -5.53775 -23.5804
R_Toe0  -1.65062 -0.277642 -17.2449
666
root  -16.3397 32.9434 33.8527 123.027 2.59058 94.0136
Spine  -4.92631 -13.0175 -22.6505
Spine1  -4.15838 20.1108 4.76728
Neck  3.97569e-016 0 -2.38542e-015
Head  -30.3901 0.210296 29.2396
R_Clavicle  0.415049 -23.9421 2.61768
R_UpperArm  41.6394 -0.528981 37.5424
R_Forearm  7.22723 -42.9561 29.0462
R_Hand  -2.04429 10.2452 -26.1857
L_Clavicle  -0.703435 26.5927 0.684701
L_UpperArm  -19.8288 -0.954148 16.6616
L_Forearm  26.2227 47.896 50.2292
L_Hand  0.0362559 -0.472714 0.77518
L_Thigh  -10.6861 -5.03756 -26.6449
L_Calf  -0.0515006 -4.80853 32.0538
L_Foot  5.95325 9.48475 12.3771
L_Toe0  0.498288 0.0362723 -6.14223
R_Thigh  -8.03766 4.29061 -0.393733
R_Calf  -5.77337 11.3008 40.6373
R_Foot  1.94068 -6.56516 -22.6978
R_Toe0  -1.26065 -0.27196 -17.0233
667
root  -15.9782 32.9003 34.7229 122.856 3.02255 93.3501
Spine  -5.19967 -11.6252 -22.8472
Spine1  -4.47501 20.4316 4.54472
Neck  3.97569e-016 0 -2.38542e-015
Head  -32.548 0.143422 28.8904
R_Clavicle  0.415167 -23.9987 2.59764
R_UpperArm  41.5366 -0.270461 38.8725
R_Forearm  7.95166 -42.5521 28.5403
R_Hand  -2.05447 10.1808 -26.2867
L_Clavicle  -0.693791 27.1665 0.909867
L_UpperArm  -21.0436 0.572578 16.0641
L_Forearm  28.5736 48.1371 52.7154
L_Hand  0.035595 -1.13396 0.818399
L_Thigh  -10.8697 -3.85415 -26.8849
L_Calf  0.517221 -3.82844 29.3665
L_Foot  5.26232 7.89764 11.9156
L_Toe0  1.10457 0.0185721 -5.60485
R_Thigh  -8.61517 5.40255 -0.498685
R_Calf  -5.4721 10.9979 36.7753
R_Foot  1.43071 -4.81805 -18.3097
R_Toe0  -1.83133 -0.283022 -17.3475
668
root  -15.625 32.8916 35.5285 122.731 3.53809 93.061
Spine  -5.30376 -10.7509 -22.8586
Spine1  -4.45062 21.0742 4.89906
Neck  3.97569e-016 0 -2.38542e-015
Head  -34.1547 -0.016828 28.1358
R_Clavicle  0.419722 -23.7802 2.35285
R_UpperArm  41.8046 0.0152476 39.6294
R_Forearm  7.9598 -42.8183 29.035
R_Hand  -2.08573 10.0564 -26.5365
L_Clavicle  -0.700695 26.7473 0.750215
L_UpperArm  -21.7887 3.27572 15.6391
L_Forearm  26.8449 47.4488 52.5928
L_Hand  0.036093 -1.09032 0.81685
L_Thigh  -10.2299 -2.77503 -26.9563
L_Calf  0.127383 -3.45048 25.8998
L_Foot  4.30067 6.3316 10.3908
L_Toe0  3.43476 -0.119564 -3.55999
R_Thigh  -7.45334 6.14596 -1.38933
R_Calf  -6.34017 10.3015 34.2573
R_Foot  0.968521 -4.17583 -14.6049
R_Toe0  -1.80524 -0.283066 -17.3327
669
root  -15.3052 32.9137 36.3158 123.086 4.01736 92.8641
Spine  -5.4887 -10.3927 -22.9328
Spine1  -4.30649 22.1722 5.64434
Neck  3.97569e-016 0 -2.38542e-015
Head  -35.3074 -0.143879 27.5256
R_Clavicle  0.421967 -23.5245 2.21263
R_UpperArm  42.2249 0.386352 39.8625
R_Forearm  7.69706 -43.5884 30.183
R_Hand  -2.12504 10.1096 -26.7853
L_Clavicle  -0.719485 25.9744 0.349979
L_UpperArm  -21.3139 5.87955 15.5474
L_Forearm  23.17 46.6146 50.1955
L_Hand  0.0490656 -0.126472 0.992744
L_Thigh  -9.93907 -1.47326 -26.3394
L_Calf  0.586526 -2.92701 21.6202
L_Foot  3.0689 4.43503 8.04232
L_Toe0  5.76947 -0.438976 -1.38238
R_Thigh  -7.33463 6.97458 -2.76783
R_Calf  -5.95348 9.97167 33.0183
R_Foot  0.579354 -5.14645 -13.0326
R_Toe0  -1.64259 -0.280387 -17.2482
670
root  -15.0526 32.8908 37.1005 123.908 4.53055 92.2742
Spine  -5.8501 -9.58346 -22.8889
Spine1  -4.27625 23.2266 6.02948
Neck  3.97569e-016 0 -2.38542e-015
Head  -36.4415 -0.245763 27.3899
R_Clavicle  0.420802 -23.4857 2.31357
R_UpperArm  42.7161 0.85064 39.9739
R_Forearm  7.34411 -44.4427 31.5095
R_Hand  -2.14611 10.3932 -26.8306
L_Clavicle  -0.737006 25.7655 0.0948493
L_UpperArm  -19.0167 7.17439 15.5832
L_Forearm  20.3706 45.7776 46.4913
L_Hand  0.0724378 1.09203 1.29641
L_Thigh  -9.04938 0.343984 -24.2877
L_Calf  1.41921 -2.12657 15.368
L_Foot  1.80756 2.58861 5.13106
L_Toe0  6.98261 -0.845617 1.07096
R_Thigh  -7.58509 8.24878 -3.91805
R_Calf  -4.57502 9.68745 31.9846
R_Foot  0.277046 -5.67079 -11.6858
R_Toe0  -1.02775 -0.266512 -16.8267
